<svg width="1426" height="287" viewBox="0 0 1426 287" fill="none" xmlns="http://www.w3.org/2000/svg">
<g opacity="0.03">
<path d="M77.3609 125.85L75.5701 125.85L79.5098 279.326L-0.000197616 279.326L-0.000185742 7.67377L111.385 7.67377L157.229 153.86L159.02 153.86L198.775 7.67377L313.742 7.67377L313.742 279.326L231.008 279.326L233.516 126.618L231.367 126.234L184.09 279.326L123.921 279.326L77.3609 125.85Z" fill="white"/>
<path d="M349.49 141.965C349.49 99.2477 362.742 64.9715 389.245 39.1363C415.748 13.0454 449.415 -4.07759e-05 490.244 -4.09032e-05C531.074 -4.10304e-05 564.74 13.0454 591.243 39.1363C617.985 64.9715 631.356 99.2477 631.356 141.965C631.356 184.939 617.985 219.854 591.243 246.713C564.501 273.571 530.835 287 490.244 287C449.653 287 415.987 273.571 389.245 246.713C362.742 219.854 349.49 184.939 349.49 141.965ZM440.103 141.965C440.103 159.615 444.759 174.195 454.071 185.706C463.621 196.961 475.679 202.588 490.244 202.588C504.57 202.588 516.509 196.961 526.059 185.706C535.61 174.195 540.385 159.615 540.385 141.965C540.385 124.571 535.61 110.503 526.059 99.7593C516.747 89.016 504.809 83.6444 490.244 83.6444C475.679 83.6444 463.621 89.016 454.071 99.7593C444.759 110.503 440.103 124.571 440.103 141.965Z" fill="white"/>
<path d="M767.98 78.6564L746.849 78.6564L746.849 112.037L769.771 112.037C783.381 112.037 790.186 106.026 790.186 94.004C790.186 83.7723 782.784 78.6564 767.98 78.6564ZM768.697 170.742L746.849 170.742L746.849 207.576L772.278 207.576C779.203 207.576 784.694 205.914 788.753 202.588C792.812 199.263 794.842 194.659 794.842 188.775C794.842 182.381 792.096 177.776 786.604 174.963C781.352 172.149 775.382 170.742 768.697 170.742ZM833.164 136.977L833.164 138.128C846.297 141.454 857.519 148.616 866.831 159.615C876.143 170.614 880.799 184.043 880.799 199.902C880.799 214.227 878.053 226.761 872.561 237.504C867.069 247.992 859.548 256.177 849.998 262.06C840.447 267.943 830.06 272.292 818.838 275.106C807.616 277.919 795.439 279.326 782.307 279.326L667.339 279.326L667.339 7.67377L771.562 7.67377C837.462 7.67377 870.412 31.7183 870.412 79.8075C870.412 107.689 857.996 126.746 833.164 136.977Z" fill="white"/>
<path d="M915.668 279.326L915.668 7.67377L1001.62 7.67377L1001.62 279.326L915.668 279.326Z" fill="white"/>
<path d="M1048.93 279.326L1048.93 7.67377L1134.88 7.67377L1134.88 201.053L1219.05 201.053L1219.05 279.326L1048.93 279.326Z" fill="white"/>
<path d="M1245.49 279.326L1245.49 7.67377L1419.91 7.67377L1419.91 83.6444L1325.72 83.6444L1325.72 107.049L1414.18 107.049L1414.18 178.032L1325.72 178.032L1325.72 203.356L1426 203.356L1426 279.326L1245.49 279.326Z" fill="white"/>
</g>
</svg>
